<?xml version="1.0" encoding="UTF-8"?>
<svg id="Layer_1" data-name="Layer 1" xmlns="http://www.w3.org/2000/svg" viewBox="0 0 841.89 595.28">
  <defs>
    <style>
      .cls-1 {
        fill: #fff;
        fill-rule: evenodd;
      }
    </style>
  </defs>
  <path class="cls-1" d="m443.56,1.89c-159.12,0-288.13,129-288.13,288.14,0,54.44,15.11,105.35,41.34,148.78l-52.01,154.59,159.52-51.07c41.28,22.82,88.75,35.84,139.26,35.84,159.15,0,288.14-129.01,288.14-288.14S602.71,1.89,443.56,1.89Zm0,528c-48.71,0-94.08-14.61-131.96-39.66l-92.18,29.51,29.96-89.07c-28.71-39.55-45.68-88.14-45.68-140.64,0-132.27,107.6-239.88,239.86-239.88s239.87,107.61,239.87,239.88-107.6,239.86-239.87,239.86Zm135.1-174.39c-7.22-3.96-42.7-23.1-49.36-25.81-6.65-2.7-11.51-4.11-16.69,3.07-5.18,7.16-19.9,23.2-24.36,27.95-4.48,4.75-8.79,5.19-16.02,1.23-7.21-3.94-30.62-12.6-57.77-38.71-21.13-20.31-34.99-44.94-39.01-52.46-4.02-7.53-.03-11.36,3.79-14.88,3.43-3.18,7.68-8.32,11.52-12.48,3.83-4.15,5.18-7.17,7.81-11.99,2.63-4.82,1.57-9.16-.13-12.91-1.7-3.74-15.06-40.49-20.63-55.44-5.58-14.95-11.79-12.73-16.08-12.9-4.29-.15-9.17-.95-14.08-1.13-4.9-.19-12.95,1.36-19.96,8.46-7.02,7.11-26.68,24.18-28.04,60.38-1.35,36.18,23.69,72.14,27.18,77.18,3.49,5.05,47.82,83.49,121.47,115.75,73.67,32.25,74.06,22.42,87.58,21.7,13.52-.71,44.18-16.17,50.96-33.11,6.77-16.94,7.32-31.66,5.6-34.8-1.73-3.13-6.55-5.17-13.77-9.11Z"/>
</svg>